<svg xmlns="http://www.w3.org/2000/svg" width="50.245" height="50.245" viewBox="0 0 50.245 50.245">
  <path id="Path_15" data-name="Path 15" d="M957.122,298.5a25.122,25.122,0,1,0,25.122,25.122A25.122,25.122,0,0,0,957.122,298.5Zm-10.647,44.552,4.354-7.541a13.491,13.491,0,0,0,12.477.142l4.317,7.478a22.179,22.179,0,0,1-21.148-.079Zm.089-19.429a10.642,10.642,0,1,1,17.726,7.942l-5.591-9.684-1.672-2.9-7.137,12.362a10.609,10.609,0,0,1-3.325-7.724Zm10.463,1.154,4.854,8.409a10.646,10.646,0,0,1-9.627-.143Zm13.052,16.814-4.341-7.52a13.491,13.491,0,1,0-17.3-.205l-4.4,7.627a22.152,22.152,0,1,1,26.047.1Z" transform="translate(-931.999 -298.5)" fill="#05adf1"/>
</svg>
